<?xml version="1.0" encoding="UTF-8" standalone="no"?>
<!-- Created with Inkscape (http://www.inkscape.org/) -->

<svg
   xmlns:dc="http://purl.org/dc/elements/1.1/"
   xmlns:cc="http://creativecommons.org/ns#"
   xmlns:rdf="http://www.w3.org/1999/02/22-rdf-syntax-ns#"
   xmlns:svg="http://www.w3.org/2000/svg"
   xmlns="http://www.w3.org/2000/svg"
   xmlns:sodipodi="http://sodipodi.sourceforge.net/DTD/sodipodi-0.dtd"
   xmlns:inkscape="http://www.inkscape.org/namespaces/inkscape"
   width="24.581003mm"
   height="25.04459mm"
   viewBox="0 0 24.581003 25.044589"
   version="1.1"
   id="svg8"
   sodipodi:docname="botsgg.svg"
   inkscape:version="0.92.5 (2060ec1f9f, 2020-04-08)">
  <defs
     id="defs2">
    <clipPath
       id="clip0">
      <rect
         id="rect821"
         height="42"
         width="34.125"
         x="0"
         y="0"
         style="fill:currentColor" />
    </clipPath>
  </defs>
  <sodipodi:namedview
     id="base"
     pagecolor="#ffffff"
     bordercolor="#666666"
     borderopacity="1.0"
     inkscape:pageopacity="0.0"
     inkscape:pageshadow="2"
     inkscape:zoom="3.338774"
     inkscape:cx="77.666271"
     inkscape:cy="56.99456"
     inkscape:document-units="mm"
     inkscape:current-layer="layer1"
     showgrid="false"
     inkscape:window-width="1366"
     inkscape:window-height="711"
     inkscape:window-x="0"
     inkscape:window-y="29"
     inkscape:window-maximized="1" />
  <metadata
     id="metadata5">
    <rdf:RDF>
      <cc:Work
         rdf:about="">
        <dc:format>image/svg+xml</dc:format>
        <dc:type
           rdf:resource="http://purl.org/dc/dcmitype/StillImage" />
        <dc:title></dc:title>
      </cc:Work>
    </rdf:RDF>
  </metadata>
  <g
     inkscape:label="Layer 1"
     inkscape:groupmode="layer"
     id="layer1"
     transform="translate(29.650206,-212.28)">
    <path
       style="fill:#ffffff;fill-opacity:1;stroke-width:0.03439583"
       d="m -24.033894,237.27956 c -1.641457,-0.18751 -3.124023,-0.77403 -4.275629,-1.69147 -0.42532,-0.33884 -0.876695,-0.79491 -1.141621,-1.15348 l -0.199062,-0.26943 0.0063,-0.54756 c 0.04052,-3.4984 1.082204,-7.74779 2.745733,-11.20077 l 0.260557,-0.54084 0.450543,-0.30646 c 1.159071,-0.78841 2.499892,-1.38556 3.726747,-1.65973 l 0.352557,-0.0788 v -1.25782 -1.25781 l -1.686296,-1.30636 -1.686297,-1.30635 1.686297,-0.009 1.686296,-0.009 V 213.48234 212.28 l 1.999244,1.53802 1.999244,1.53803 -1.655286,0.009 -1.655285,0.009 v 2.16891 2.1689 l 0.352557,-0.0199 0.352557,-0.0199 0.09639,0.11895 0.09639,0.11895 -0.147987,0.0397 c -1.011324,0.27107 -2.706642,0.97985 -3.690758,1.54303 -0.655335,0.37503 -1.708769,1.10909 -1.660665,1.1572 0.0074,0.007 0.130248,-0.0477 0.272989,-0.12254 1.026481,-0.53787 2.437517,-1.08118 3.606207,-1.38854 0.855821,-0.22508 1.523437,-0.33626 2.958041,-0.49262 0.809611,-0.0882 2.922087,-0.087 3.663156,0.002 2.172014,0.26137 4.035551,0.81448 5.8952293,1.74974 0.5778393,0.29061 0.5927403,0.2674 0.077254,-0.12034 -1.0176973,-0.76549 -2.8001663,-1.65173 -4.3128843,-2.14434 -0.222283,-0.0724 -0.404151,-0.14368 -0.404151,-0.15843 0,-0.0148 0.05774,-0.0907 0.128306,-0.16884 l 0.128306,-0.14202 0.310241,0.0231 c 1.758056,0.13095 3.646015,0.83393 5.2554663,1.95685 0.3127375,0.2182 0.3443304,0.25122 0.4598038,0.48052 0.6271805,1.24541 1.3796512,3.20532 1.8161532,4.73039 0.623257,2.17757 0.956006,4.18108 1.0565144,6.36134 l 0.041534,0.90097 -0.1306315,0.18967 c -0.2266651,0.32911 -0.6342437,0.76789 -1.012679,1.0902 -1.3180232,1.12255 -3.1060039,1.81613 -4.9170532,1.90739 l -0.401493,0.0202 -0.539311,-0.66558 c -0.296621,-0.36608 -0.600948,-0.74348 -0.676282,-0.83868 l -0.136969,-0.17309 0.447929,-0.15093 c 1.199712,-0.40424 2.410923,-1.19606 3.0900683,-2.02012 0.1334304,-0.1619 0.2357023,-0.30127 0.2272712,-0.3097 -0.00843,-0.008 -0.2131362,0.10388 -0.4549,0.24958 -1.0742915,0.6474 -2.6381535,1.28844 -3.9750515,1.62941 -2.296449,0.58568 -4.700008,0.61459 -7.028858,0.0845 -1.580449,-0.35972 -3.268134,-1.00703 -4.385469,-1.68205 -0.179718,-0.10858 -0.379617,-0.22932 -0.44422,-0.26832 l -0.117459,-0.0709 0.06587,0.11388 c 0.09485,0.16398 0.671904,0.76387 0.965803,1.00403 0.592266,0.48396 1.40909,0.94315 2.161291,1.215 0.189177,0.0684 0.371565,0.13543 0.405305,0.14902 0.05167,0.0208 -0.01075,0.11442 -0.395552,0.59325 -0.251294,0.3127 -0.557506,0.69485 -0.680471,0.84924 l -0.223573,0.2807 -0.275167,-0.003 c -0.151342,-0.001 -0.391253,-0.0158 -0.533135,-0.032 z m 3.190335,-5.13832 c 0.545098,-0.12852 1.127606,-0.58927 1.391362,-1.10053 0.225508,-0.43712 0.285063,-0.69407 0.283014,-1.22105 -0.0016,-0.40785 -0.01294,-0.49791 -0.09335,-0.74024 -0.171281,-0.51619 -0.480515,-0.93412 -0.89756,-1.21305 -0.347755,-0.2326 -0.611795,-0.31963 -1.036531,-0.34166 -0.430082,-0.0223 -0.659637,0.0234 -1.018013,0.20279 -1.122241,0.5617 -1.583249,2.05913 -0.993619,3.22745 0.297232,0.58895 0.815336,1.02267 1.413937,1.18365 0.242133,0.0651 0.680606,0.0663 0.950761,0.003 z m 7.597818,0.0196 c 0.450517,-0.0854 0.928409,-0.37467 1.225683,-0.74182 0.203929,-0.25186 0.4165,-0.67964 0.487113,-0.98028 0.07592,-0.32324 0.06931,-0.89035 -0.01418,-1.21681 -0.206701,-0.8082 -0.830878,-1.4609 -1.583292,-1.65566 -0.307979,-0.0797 -0.866877,-0.0575 -1.149927,0.0456 -0.862759,0.31447 -1.443019,1.13527 -1.490138,2.10787 -0.02263,0.46715 0.04538,0.79413 0.256867,1.23491 0.130878,0.27278 0.202887,0.37248 0.435889,0.60354 0.433157,0.42954 0.872872,0.62546 1.418078,0.63184 0.134571,0.002 0.320829,-0.0116 0.413906,-0.0292 z m -5.832923,-5.34733 c 0.07444,-0.15886 0.135352,-0.30259 0.135352,-0.31941 0,-0.0239 -3.67471,-1.75645 -3.930153,-1.85302 -0.04971,-0.0188 -0.0853,0.0298 -0.197776,0.26976 -0.07543,0.16097 -0.137153,0.30613 -0.137153,0.32258 0,0.0271 3.900102,1.86304 3.96635,1.86718 0.01542,9.6e-4 0.08894,-0.12823 0.16338,-0.28709 z m 5.372118,-0.64922 c 1.054662,-0.49503 1.917567,-0.91371 1.917567,-0.93041 0,-0.0167 -0.06172,-0.16207 -0.137153,-0.32304 -0.112649,-0.24039 -0.147986,-0.28854 -0.197776,-0.26947 -0.249183,0.0954 -3.895758,1.83058 -3.895758,1.85374 0,0.0163 0.06172,0.16127 0.137154,0.32225 0.112431,0.23992 0.148081,0.28856 0.197776,0.26982 0.03334,-0.0126 0.923528,-0.42787 1.97819,-0.92289 z m -8.401182,-10.24059 v -0.55033 h -0.708612 -0.708612 l 0.700013,0.54832 c 0.385007,0.30157 0.703883,0.54922 0.708612,0.55033 0.0047,0.001 0.0086,-0.24564 0.0086,-0.54832 z m 1.994958,-1.25283 c 0,-0.008 -0.16639,-0.14239 -0.369755,-0.29862 -0.203366,-0.15622 -0.497449,-0.38312 -0.653521,-0.50421 l -0.283765,-0.22017 v 0.51879 0.51879 h 0.65352 c 0.359437,0 0.653521,-0.007 0.653521,-0.0146 z"
       id="path880"
       inkscape:connector-curvature="0" />
  </g>
</svg>
