<?xml version="1.0" encoding="UTF-8" standalone="no"?>
<!-- Created with Inkscape (http://www.inkscape.org/) -->

<svg
   xmlns:dc="http://purl.org/dc/elements/1.1/"
   xmlns:cc="http://creativecommons.org/ns#"
   xmlns:rdf="http://www.w3.org/1999/02/22-rdf-syntax-ns#"
   xmlns:svg="http://www.w3.org/2000/svg"
   xmlns="http://www.w3.org/2000/svg"
   xmlns:sodipodi="http://sodipodi.sourceforge.net/DTD/sodipodi-0.dtd"
   xmlns:inkscape="http://www.inkscape.org/namespaces/inkscape"
   width="11.112499mm"
   height="10.84791mm"
   viewBox="0 0 11.112499 10.847909"
   version="1.1"
   id="svg8"
   sodipodi:docname="consteagle.svg"
   inkscape:version="0.92.5 (2060ec1f9f, 2020-04-08)">
  <defs
     id="defs2">
    <clipPath
       id="clip0">
      <rect
         id="rect821"
         height="42"
         width="34.125"
         x="0"
         y="0"
         style="fill:currentColor" />
    </clipPath>
  </defs>
  <sodipodi:namedview
     id="base"
     pagecolor="#ffffff"
     bordercolor="#666666"
     borderopacity="1.0"
     inkscape:pageopacity="0.0"
     inkscape:pageshadow="2"
     inkscape:zoom="3.338774"
     inkscape:cx="-19.041605"
     inkscape:cy="20.488406"
     inkscape:document-units="mm"
     inkscape:current-layer="layer1"
     showgrid="false"
     inkscape:window-width="1366"
     inkscape:window-height="711"
     inkscape:window-x="0"
     inkscape:window-y="29"
     inkscape:window-maximized="1" />
  <metadata
     id="metadata5">
    <rdf:RDF>
      <cc:Work
         rdf:about="">
        <dc:format>image/svg+xml</dc:format>
        <dc:type
           rdf:resource="http://purl.org/dc/dcmitype/StillImage" />
        <dc:title />
      </cc:Work>
    </rdf:RDF>
  </metadata>
  <g
     inkscape:label="Layer 1"
     inkscape:groupmode="layer"
     id="layer1"
     transform="translate(17.138447,-216.81776)">
    <path
       style="fill:#ffffff;stroke-width:0.26458332;fill-opacity:1"
       d="m -13.051591,226.56601 c -0.656143,-0.60481 -1.149023,-1.22988 -1.09529,-1.38906 0.05373,-0.15917 -0.235396,-0.49309 -0.642511,-0.74204 -0.627229,-0.38356 -1.819889,-2.18068 -1.819889,-2.74225 0,-0.0953 0.324133,0.0391 0.720295,0.29869 0.631125,0.41353 0.59837,0.32952 -0.264583,-0.67865 -0.889662,-1.03937 -0.984878,-1.29797 -0.984878,-2.67487 0,-0.83834 0.09378,-1.58222 0.208398,-1.65306 0.114619,-0.0708 0.535456,0.45303 0.935193,1.16414 0.399737,0.71111 1.507574,2.14374 2.46186,3.1836 0.954286,1.03987 1.887792,2.2539 2.074458,2.69785 l 0.339394,0.80718 0.451873,-0.68965 c 0.275071,-0.41981 0.383485,-0.90511 0.277086,-1.24035 -0.135203,-0.42598 0.144442,-0.89557 1.2348296,-2.07357 0.7752889,-0.83758 1.7070678,-2.08387 2.0706201,-2.76954 0.363552,-0.68567 0.7505051,-1.24667 0.8598957,-1.24667 0.1093904,0 0.1988918,0.77356 0.1988918,1.71903 0,1.61105 -0.062321,1.78933 -0.9921874,2.83835 -0.8688176,0.98014 -0.9017161,1.06172 -0.2645833,0.65612 0.5226145,-0.3327 0.7273255,-0.36831 0.7266151,-0.12637 -0.00183,0.62052 -1.0443395,2.05649 -1.8477258,2.54505 -0.4373703,0.26598 -0.7137747,0.56505 -0.6142323,0.66459 0.2327126,0.23271 -2.0327365,2.55114 -2.4928445,2.55114 -0.191234,0 -0.884542,-0.49484 -1.540685,-1.09966 z"
       id="path916"
       inkscape:connector-curvature="0" />
  </g>
</svg>
