<?xml version="1.0" encoding="UTF-8" standalone="no"?>
<!-- Created with Inkscape (http://www.inkscape.org/) -->

<svg
   xmlns:dc="http://purl.org/dc/elements/1.1/"
   xmlns:cc="http://creativecommons.org/ns#"
   xmlns:rdf="http://www.w3.org/1999/02/22-rdf-syntax-ns#"
   xmlns:svg="http://www.w3.org/2000/svg"
   xmlns="http://www.w3.org/2000/svg"
   xmlns:sodipodi="http://sodipodi.sourceforge.net/DTD/sodipodi-0.dtd"
   xmlns:inkscape="http://www.inkscape.org/namespaces/inkscape"
   width="9.0289059mm"
   height="11.1125mm"
   viewBox="0 0 9.0289059 11.1125"
   version="1.1"
   id="svg8"
   sodipodi:docname="topgg.svg"
   inkscape:version="0.92.5 (2060ec1f9f, 2020-04-08)">
  <defs
     id="defs2">
    <clipPath
       id="clip0">
      <rect
         id="rect821"
         height="42"
         width="34.125"
         x="0"
         y="0"
         style="fill:currentColor" />
    </clipPath>
  </defs>
  <sodipodi:namedview
     id="base"
     pagecolor="#ffffff"
     bordercolor="#666666"
     borderopacity="1.0"
     inkscape:pageopacity="0.0"
     inkscape:pageshadow="2"
     inkscape:zoom="3.5462264"
     inkscape:cx="27.0625"
     inkscape:cy="19.571426"
     inkscape:document-units="mm"
     inkscape:current-layer="layer1"
     showgrid="false"
     inkscape:window-width="1366"
     inkscape:window-height="711"
     inkscape:window-x="0"
     inkscape:window-y="29"
     inkscape:window-maximized="1" />
  <metadata
     id="metadata5">
    <rdf:RDF>
      <cc:Work
         rdf:about="">
        <dc:format>image/svg+xml</dc:format>
        <dc:type
           rdf:resource="http://purl.org/dc/dcmitype/StillImage" />
      </cc:Work>
    </rdf:RDF>
  </metadata>
  <g
     inkscape:label="Layer 1"
     inkscape:groupmode="layer"
     id="layer1"
     transform="translate(-41.598642,-113.79494)">
    <g
       id="g819"
       clip-path="url(#clip0)"
       transform="matrix(0.26458333,0,0,0.26458333,41.598642,113.79494)"
       style="fill:#ffffff;fill-opacity:1">
      <path
         id="path815"
         d="M 25.0363,8.95168 V 6.18876 C 26.1397,5.6087 26.7176,4.53146 26.7176,3.31573 26.7176,1.49157 25.2297,0 23.4108,0 c -1.8177,0 -3.3055,1.49157 -3.3055,3.31459 0,1.21573 0.5232,2.26573 1.6255,2.84579 v 2.7913 h -9.919 V 6.16038 C 12.306,5.86682 12.7156,5.45049 13.0007,4.95196 13.2858,4.45343 13.4366,3.88971 13.4384,3.31573 13.4372,1.49157 11.9483,0 10.1305,0 8.31281,0 6.82496,1.49157 6.82496,3.31459 6.82403,3.89953 6.97931,4.47414 7.2748,4.9793 7.57029,5.48447 7.99533,5.90194 8.50618,6.18876 v 2.76292 z"
         inkscape:connector-curvature="0"
         style="clip-rule:evenodd;fill:#ffffff;fill-rule:evenodd;fill-opacity:1" />
      <path
         id="path817"
         d="m 30.0175,11.3513 c 2.2113,0 4.0017,1.7742 4.1075,3.8606 V 42 L 30.0175,37.6183 H 4.00286 C 1.79043,37.6183 0,35.9474 0,33.7555 V 15.2119 C 0,13.1255 1.79043,11.3513 4.00286,11.3513 Z M 13.0813,20.4324 H 9.66875 c -0.93844,0 -1.70625,0.7662 -1.70625,1.7027 v 3.4054 c 0,0.9365 0.76781,1.7027 1.70625,1.7027 h 3.41255 c 0.9384,0 1.7062,-0.7662 1.7062,-1.7027 v -3.4054 c 0,-0.9365 -0.7678,-1.7027 -1.7062,-1.7027 z m 11.375,0 h -3.4125 c -0.9385,0 -1.7063,0.7662 -1.7063,1.7027 v 3.4054 c 0,0.9365 0.7678,1.7027 1.7063,1.7027 h 3.4125 c 0.9384,0 1.7062,-0.7662 1.7062,-1.7027 v -3.4054 c 0,-0.9365 -0.7678,-1.7027 -1.7062,-1.7027 z"
         inkscape:connector-curvature="0"
         style="fill:#ffffff;fill-opacity:1" />
    </g>
  </g>
</svg>
